PathFileType	4	(X/Y/Z)	/Users/itak/Documents/Research/Walk-IL/dataset/trc/00345_00011.trc
DataRate	CameraRate	NumFrames	NumMarkers	Units	OrigDataRate	OrigDataStartFrame	OrigNumFrames
100.000000	100.000000	4	55	mm	100.000000	459	735
Frame#	Time	RPSI			LPSI			L3			STRN			T10			C7			CLAV			RBAK			LBAK			LSHO			LUPA			LAEL			LAOL			LWTS			LWPS			LFRA			LIFD			LHPS			LHTS			RSHO			RUPA			RAEL			RAOL			RWTS			RWPS			RFRA			RIFD			RHTS			RHPS			RBHD			LFHD			RFHD			LBHD			LHIP			RHIP			RASI			LASI			LKNE			LTHI			LANK			LTIP			LTOE			LMT1			LMT5			LHEE			RKNE			RTHI			RANK			RTIP			RTOE			RMT1			RMT5			RHEE			*53			*54			
		X1	Y1	Z1	X2	Y2	Z2	X3	Y3	Z3	X4	Y4	Z4	X5	Y5	Z5	X6	Y6	Z6	X7	Y7	Z7	X8	Y8	Z8	X9	Y9	Z9	X10	Y10	Z10	X11	Y11	Z11	X12	Y12	Z12	X13	Y13	Z13	X14	Y14	Z14	X15	Y15	Z15	X16	Y16	Z16	X17	Y17	Z17	X18	Y18	Z18	X19	Y19	Z19	X20	Y20	Z20	X21	Y21	Z21	X22	Y22	Z22	X23	Y23	Z23	X24	Y24	Z24	X25	Y25	Z25	X26	Y26	Z26	X27	Y27	Z27	X28	Y28	Z28	X29	Y29	Z29	X30	Y30	Z30	X31	Y31	Z31	X32	Y32	Z32	X33	Y33	Z33	X34	Y34	Z34	X35	Y35	Z35	X36	Y36	Z36	X37	Y37	Z37	X38	Y38	Z38	X39	Y39	Z39	X40	Y40	Z40	X41	Y41	Z41	X42	Y42	Z42	X43	Y43	Z43	X44	Y44	Z44	X45	Y45	Z45	X46	Y46	Z46	X47	Y47	Z47	X48	Y48	Z48	X49	Y49	Z49	X50	Y50	Z50	X51	Y51	Z51	X52	Y52	Z52	X53	Y53	Z53	X54	Y54	Z54	X55	Y55	Z55	

460	4.59	-312.6317443847656	943.4739379882812	-579.46484375	-217.4541015625	944.1039428710938	-491.9446716308594	-250.2907104492188	1006.761779785156	-537.4276733398438	-396.7088012695312	1189.002807617188	-351.1352233886719	-225.6949157714844	1115.091674804688	-517.0057983398438	-232.7203216552734	1365.232299804688	-471.3103332519531	-355.2192993164062	1313.715942382812	-374.0708312988281	-244.8151397705078	1230.239135742188	-558.1179809570312	-157.6063537597656	1323.6328125	-405.4396057128906	-183.0160675048828	1340.272583007812	-306.7444763183594	-134.0890197753906	1216.581176757812	-266.7337646484375	-162.4191131591797	1016.87158203125	-225.9972686767578	-146.2285766601562	992.62548828125	-306.4674987792969	-343.3125915527344	840.4681396484375	-178.0760345458984	-290.6007690429688	809.4629516601562	-146.6067352294922	-200.5176696777344	925.0982055664062	-197.6010589599609	-418.21435546875	701.42138671875	-154.1692962646484	-319.4515991210938	746.3402709960938	-140.6703186035156	-376.617431640625	775.5098876953125	-143.9794311523438	-379.8486633300781	1360.95849609375	-557.3499755859375	-407.9903869628906	1303.56689453125	-618.5715942382812	-436.9493103027344	1051.58544921875	-697.56396484375	-368.0111389160156	1027.137084960938	-636.8032836914062	-537.1412963867188	819.3242797851562	-662.3707275390625	-531.6673583984375	819.6138916015625	-738.363525390625	-467.22314453125	987.4849853515625	-711.6092529296875	-555.7942504882812	650.3784790039062	-691.8245239257812	-571.9679565429688	721.1019287109375	-682.8150024414062	-548.2064208984375	734.5725708007812	-746.5941772460938	-337.4689025878906	1583.087890625	-483.1846313476562	-359.2665710449219	1570.620483398438	-275.7049255371094	-429.1651000976562	1577.796508789062	-349.0948181152344	-219.8210144042969	1570.990478515625	-399.7618408203125	-194.4263610839844	882.2001342773438	-360.4532165527344	-452.2442321777344	900.1630859375	-585.3932495117188	-481.1036682128906	932.2802734375	-477.741455078125	-316.5645446777344	908.0079956054688	-303.2600402832031	-237.5069732666016	431.7710266113281	-422.6727600097656	-231.4779205322266	567.915283203125	-387.9664916992188	-117.632080078125	61.48738479614258	-608.85693359375	-177.9990234375	228.2894439697266	-509.4619445800781	-324.364013671875	36.68864822387695	-574.7139282226562	-276.001708984375	26.31377792358398	-640.23193359375	-221.5946197509766	45.74236297607422	-542.7966918945312	-117.3082504272461	73.48448944091797	-683.9820556640625	-594.3372802734375	468.125	-457.512451171875	-552.453857421875	716.5198364257812	-510.1747131347656	-702.9210205078125	59.90818405151367	-374.6990356445312	-636.0968017578125	368.4636840820312	-420.5408935546875	-772.1375732421875	140.6214599609375	-206.7648162841797	-707.8693237304688	117.300895690918	-217.6549377441406	-778.213134765625	80.53990936279297	-305.4056396484375	-634.8140869140625	47.31726837158203	-383.3425598144531	nan	nan	nan	nan	nan	nan	
461	4.600000000000001	-322.0115356445312	942.760498046875	-574.4895629882812	-226.0579071044922	943.44677734375	-487.9389953613281	-259.3383178710938	1005.7685546875	-532.9404296875	-403.4463500976562	1188.395751953125	-344.9457702636719	-235.1140594482422	1113.745361328125	-512.6476440429688	-240.7210540771484	1364.328491210938	-467.3710632324219	-362.1083068847656	1313.129516601562	-368.5223693847656	-254.1616668701172	1229.240600585938	-553.8453979492188	-164.7985687255859	1322.692016601562	-402.5250549316406	-188.9106292724609	1339.273559570312	-303.4980773925781	-139.4517517089844	1215.490844726562	-264.3613586425781	-166.8630828857422	1015.607116699219	-224.3331756591797	-151.8550872802734	991.92236328125	-305.2198791503906	-344.7127075195312	836.0637817382812	-174.9633941650391	-291.0596618652344	805.5546875	-144.8118438720703	-203.551025390625	922.984130859375	-196.0099334716797	-417.0675048828125	695.70751953125	-151.0923004150391	-318.8189697265625	742.029296875	-138.7997589111328	-376.4945068359375	770.3171997070312	-140.9330902099609	-388.950439453125	1360.256958007812	-551.5289916992188	-417.8120422363281	1302.955688476562	-612.4645385742188	-447.5168762207031	1051.064331054688	-691.4251098632812	-377.8995971679688	1026.5888671875	-631.4703979492188	-547.0234375	818.5289916992188	-655.9439697265625	-542.18701171875	819.0665893554688	-731.9766845703125	-477.8692626953125	986.9932861328125	-705.3008422851562	-565.5675659179688	649.63232421875	-685.8148193359375	-581.97998046875	720.3291015625	-676.44970703125	-558.626220703125	734.0421142578125	-740.3656005859375	-345.2228698730469	1582.355102539062	-478.0547180175781	-364.353759765625	1570.026611328125	-270.2861633300781	-435.0701904296875	1577.319702148438	-342.7242126464844	-226.4634399414062	1570.049560546875	-396.1891784667969	-201.3737640380859	881.5816040039062	-356.80615234375	-461.7765502929688	899.3892211914062	-578.610595703125	-489.3606567382812	931.6996459960938	-470.6354064941406	-322.7119750976562	907.2249755859375	-297.8730773925781	-242.3675842285156	431.5878601074219	-419.0199890136719	-236.7676391601562	567.5574340820312	-384.2040710449219	-118.185188293457	63.74561309814453	-608.3878784179688	-180.6008148193359	229.1980590820312	-507.4440612792969	-324.3385009765625	36.72641754150391	-574.7484741210938	-276.0374755859375	26.49955368041992	-640.0740356445312	-221.7253265380859	45.88800811767578	-542.4046630859375	-118.1298599243164	76.79249572753906	-683.35546875	-602.5117797851562	468.0171203613281	-446.6773681640625	-561.546875	716.5136108398438	-501.2645874023438	-705.58740234375	58.09166717529297	-367.1009521484375	-642.5081787109375	367.0862731933594	-409.5869140625	-770.24658203125	135.5902557373047	-196.5315246582031	-706.3450927734375	112.6229553222656	-209.3233947753906	-778.9716186523438	77.07962799072266	-295.6172180175781	-637.7518920898438	46.09597396850586	-377.5586242675781	nan	nan	nan	nan	nan	nan	
462	4.61	-331.4789733886719	942.19677734375	-569.1800537109375	-234.7839508056641	942.8252563476562	-483.5950012207031	-268.3451538085938	1004.845153808594	-528.2862548828125	-410.3018798828125	1187.959228515625	-338.6669921875	-244.3706512451172	1112.647583007812	-508.2257385253906	-248.7916564941406	1363.5234375	-463.3330993652344	-369.0840148925781	1312.702758789062	-362.8972473144531	-263.6333923339844	1228.314819335938	-549.38671875	-172.0710906982422	1321.848510742188	-399.5336303710938	-194.9157257080078	1338.373291015625	-300.1842041015625	-144.91943359375	1214.51708984375	-261.9175415039062	-171.3079681396484	1014.46484375	-222.7066345214844	-157.4976501464844	991.3833618164062	-304.0086364746094	-345.8291320800781	831.5645751953125	-171.9633483886719	-291.1620788574219	801.6397705078125	-143.1947631835938	-206.4535980224609	920.9513549804688	-194.5127105712891	-415.3857116699219	689.8262329101562	-148.2445831298828	-317.7673645019531	737.673828125	-137.1573944091797	-375.9411010742188	764.981201171875	-138.0592498779297	-398.0816345214844	1359.691528320312	-545.608154296875	-427.6687316894531	1302.47216796875	-606.2340087890625	-458.2022094726562	1050.62451171875	-684.9978637695312	-387.8950500488281	1026.148315429688	-625.8590087890625	-557.0052490234375	817.8195190429688	-649.119140625	-552.8547973632812	818.5872802734375	-725.1856079101562	-488.6438903808594	986.58251953125	-698.6569213867188	-575.3676147460938	648.9481811523438	-679.3381958007812	-592.0166625976562	719.6107177734375	-669.6254272460938	-569.1817016601562	733.5703125	-733.6985473632812	-352.987548828125	1581.748291015625	-472.8029479980469	-369.4595336914062	1569.534912109375	-264.7932434082031	-440.9685668945312	1576.960815429688	-336.2525939941406	-233.1435699462891	1569.225219726562	-392.5341491699219	-208.5447998046875	880.966796875	-352.8441772460938	-471.3330383300781	898.8441162109375	-571.6605224609375	-497.7279968261719	931.3817749023438	-463.4091491699219	-329.10986328125	906.5047607421875	-292.2967224121094	-247.5630187988281	431.446044921875	-415.1234436035156	-242.38818359375	567.2349853515625	-380.1742553710938	-118.8453903198242	66.26503753662109	-607.8108520507812	-183.3630065917969	230.3112030029297	-505.2745666503906	-324.2887268066406	36.79456329345703	-574.7900390625	-276.1133728027344	26.77029609680176	-639.894287109375	-221.8889007568359	46.00782012939453	-541.9495849609375	-119.0894317626953	80.45167541503906	-682.5814208984375	-610.556884765625	468.036376953125	-435.6551513671875	-570.612548828125	716.7055053710938	-492.0960083007812	-707.41845703125	56.15705490112305	-360.7567749023438	-648.5753173828125	365.6144104003906	-398.641357421875	-767.4072875976562	129.4563446044922	-187.2895965576172	-703.8950805664062	106.9537811279297	-202.0841064453125	-778.7862548828125	73.06394958496094	-287.0293884277344	-639.8866577148438	44.86977005004883	-373.0766906738281	nan	nan	nan	nan	nan	nan	
463	4.62	-341.0638122558594	941.7887573242188	-563.5162963867188	-243.6356353759766	942.2548217773438	-478.9067993164062	-277.3545837402344	1003.981079101562	-523.4288330078125	-417.2700500488281	1187.70068359375	-332.2953796386719	-253.4240264892578	1111.83056640625	-503.7807922363281	-256.9326171875	1362.818603515625	-459.2031860351562	-376.1370849609375	1312.43603515625	-357.1965637207031	-273.2276916503906	1227.469848632812	-544.7489013671875	-179.4189147949219	1321.098876953125	-396.4745788574219	-201.0193786621094	1337.5751953125	-296.8093872070312	-150.4814758300781	1213.660888671875	-259.4144287109375	-175.7522583007812	1013.448791503906	-221.1138305664062	-163.1567077636719	991.0021362304688	-302.8276672363281	-346.6550903320312	826.999755859375	-169.0833129882812	-290.9143371582031	797.7555541992188	-141.7506866455078	-209.2271575927734	919.0132446289062	-193.1091156005859	-413.1748657226562	683.8226928710938	-145.6383666992188	-316.3043212890625	733.3114013671875	-135.7534637451172	-374.9586486816406	759.5430297851562	-135.3681945800781	-407.24951171875	1359.262084960938	-539.58984375	-437.571533203125	1302.113037109375	-599.8760375976562	-469.0025634765625	1050.26171875	-678.2855224609375	-398.0042419433594	1025.807373046875	-619.9640502929688	-567.0885620117188	817.197509765625	-641.8881225585938	-563.669189453125	818.173095703125	-717.9830932617188	-499.5448608398438	986.2493896484375	-691.6810913085938	-585.2097778320312	648.3284301757812	-672.3834838867188	-602.0897827148438	718.9509887695312	-662.3327026367188	-579.8722534179688	733.1556396484375	-726.5833740234375	-360.7559509277344	1581.282104492188	-467.4290466308594	-374.5631103515625	1569.154052734375	-259.2236022949219	-446.8563232421875	1576.728637695312	-329.6796875	-239.8561401367188	1568.531005859375	-388.8006591796875	-215.9214324951172	880.3633422851562	-348.5587158203125	-480.9537963867188	898.5227661132812	-564.512939453125	-506.2233276367188	931.3119506835938	-456.0218811035156	-335.7574157714844	905.8446655273438	-286.5154724121094	-253.1029357910156	431.3424682617188	-410.95947265625	-248.3460083007812	566.9401245117188	-375.8643493652344	-119.6684875488281	69.08290100097656	-607.1704711914062	-186.3025207519531	231.6584320068359	-502.9685363769531	-324.217041015625	36.89527893066406	-574.8302001953125	-276.2742919921875	27.15574836730957	-639.6931762695312	-222.0988311767578	46.10335159301758	-541.4529418945312	-120.2854309082031	84.51455688476562	-681.6936645507812	-618.3980712890625	468.1102600097656	-424.5828857421875	-579.6077880859375	717.00146484375	-482.7199096679688	-708.6533203125	54.22909545898438	-355.482421875	-654.3012084960938	364.0961303710938	-387.8099060058594	-763.9346923828125	122.5176467895508	-178.9584503173828	-700.8346557617188	100.5812377929688	-195.8065338134766	-777.91943359375	68.69883728027344	-279.5202941894531	-641.4395751953125	43.74461364746094	-369.6503601074219	nan	nan	nan	nan	nan	nan	
